<?xml version="1.0" standalone="no"?>
<!DOCTYPE svg PUBLIC "-//W3C//DTD SVG 20010904//EN"
 "http://www.w3.org/TR/2001/REC-SVG-20010904/DTD/svg10.dtd">
<svg version="1.0" xmlns="http://www.w3.org/2000/svg"
 width="708.000000pt" height="691.000000pt" viewBox="0 0 708.000000 691.000000"
 preserveAspectRatio="xMidYMid meet">
<metadata>
Created by potrace 1.16, written by Peter Selinger 2001-2019
</metadata>
<g transform="translate(0.000000,691.000000) scale(0.100000,-0.100000)"
fill="#000000" stroke="none">
<path d="M3093 6805 c-1016 -101 -1924 -653 -2493 -1515 -119 -180 -271 -476
-310 -602 l-8 -26 36 13 c21 8 62 23 92 35 178 67 468 92 667 56 150 -27 323
-87 415 -143 21 -13 40 -23 43 -23 20 0 185 -130 262 -205 136 -134 238 -285
304 -451 37 -95 44 -104 53 -68 10 40 75 179 116 249 180 307 505 545 850 624
123 28 181 34 312 33 230 -1 430 -49 618 -149 132 -70 163 -92 279 -194 216
-190 365 -451 427 -749 25 -118 26 -382 1 -499 -59 -273 -178 -501 -361 -686
-259 -263 -578 -401 -946 -409 -364 -9 -705 130 -970 394 -144 143 -267 333
-319 493 -7 20 -16 37 -19 37 -4 0 -22 -39 -41 -86 -132 -329 -389 -587 -741
-742 -64 -28 -222 -70 -326 -86 -194 -30 -448 -2 -641 70 -51 19 -97 32 -102
29 -12 -7 13 -65 111 -264 129 -264 267 -474 453 -695 117 -138 244 -265 421
-416 261 -225 681 -464 1024 -582 379 -131 731 -190 1134 -189 534 0 996 106
1472 336 240 116 527 302 699 453 337 296 567 576 774 939 196 346 353 820
396 1198 3 28 8 60 10 71 3 12 9 105 15 206 47 858 -237 1706 -789 2358 -575
679 -1377 1100 -2260 1185 -185 18 -476 18 -658 0z"/>
</g>
</svg>
